<svg xmlns="http://www.w3.org/2000/svg" width="307" height="357" viewBox="0 0 307 357" version="1.1"><path d="M 151.580 2.871 C 151.051 3.726, 153.353 32.960, 156.590 66.500 C 159.040 91.879, 157.004 131.396, 153.043 135.357 C 149.864 138.536, 151.294 109.253, 154.561 104.266 C 156.663 101.058, 156.103 96.500, 153.608 96.500 C 144.619 96.500, 140.783 138.064, 149.079 145.571 C 155.378 151.272, 159.544 138.495, 160.649 110.090 C 161.327 92.679, 161.327 92.679, 164.081 109.090 C 173.265 163.799, 189.387 198, 205.993 198 C 219.172 198, 231.548 163.098, 227.358 137.750 C 226.258 131.097, 225.321 133.733, 224.690 145.250 C 223.213 172.217, 213.390 191.564, 204.057 185.889 C 190.342 177.548, 178.752 137.833, 163.964 48.500 C 156.181 1.484, 155.039 -2.726, 151.580 2.871 M 183.405 9.656 C 177.497 41.145, 193.763 102.716, 210.205 111.104 C 217.044 114.593, 226.002 112.601, 229.046 106.914 C 233.330 98.910, 231.897 89.788, 227.528 97.250 C 214.871 118.870, 193.991 77.527, 189.526 22 C 188.330 7.136, 185.100 0.621, 183.405 9.656 M 258.183 8.987 C 243.504 18.125, 246.421 48.489, 264.524 75 C 289.594 111.713, 293.258 119.541, 289.187 127.686 C 280.607 144.852, 270.996 183.799, 272.397 195.725 C 275.470 221.870, 295.191 217.793, 302.509 189.500 C 311.674 154.063, 301.775 111.998, 274.622 71 C 262.021 51.975, 259.035 44.494, 259.012 31.899 C 258.986 17.340, 265.301 13.471, 270.451 24.891 C 274.558 33.999, 278.250 25.664, 274.386 16.007 C 271.425 8.607, 263.977 5.380, 258.183 8.987 M 226.725 42.752 C 222.515 47.403, 221.274 63.525, 224.365 73.409 C 225.458 76.905, 225.609 78.862, 224.890 80.206 C 223.288 83.199, 226.755 89.414, 230.250 89.816 C 231.762 89.990, 233 90.542, 233 91.043 C 233 92.781, 243.147 99.962, 247.111 101.030 C 253.554 102.765, 258 100.273, 258 94.929 C 258 91.611, 257.976 91.598, 254.669 93.105 C 248.591 95.874, 238.044 86.224, 240.562 80.197 C 247.298 64.077, 235.737 32.793, 226.725 42.752 M 230.287 56.750 C 230.855 64.440, 233.457 74, 234.983 74 C 236.268 74, 237.188 67.102, 236.499 62.631 C 234.272 48.184, 229.307 43.483, 230.287 56.750 M 9.022 52.207 C 4.333 57.240, 1.864 71.578, 1.283 97.158 C 0.229 143.515, 5.946 167.366, 30.487 219 C 48.036 255.921, 54.137 272.597, 57.538 292.939 C 64.139 332.414, 44.090 363.917, 30.059 336.117 C 24.710 325.518, 23.783 320.823, 23.119 301 C 22.482 281.952, 21.529 278.591, 19.346 287.690 C 10.306 325.370, 34.090 370.246, 52.374 350.008 C 74.562 325.448, 71.375 278.771, 43.141 214.766 C 29.651 184.183, 27.423 178.504, 23.040 163.513 C 15.335 137.164, 13.142 114.992, 15.183 84.094 C 17.374 50.948, 16.140 44.566, 9.022 52.207 M 106.170 99.295 C 104.871 100.860, 103.049 112.322, 103.020 119.109 C 103.006 122.250, 101.866 126.172, 99.441 131.421 C 94.866 141.324, 95.699 152.122, 100.359 143.312 C 102.482 139.298, 102.766 140.923, 103.368 160.500 C 105.305 223.514, 129.754 272.474, 145.970 245.809 C 148.469 241.699, 147.941 241.255, 143.685 243.886 C 129.854 252.434, 120.410 236.426, 116.610 198 C 112.423 155.648, 112.365 150.664, 115.992 145.012 C 120.654 137.747, 121.012 138.892, 121.954 164.109 C 123.219 197.923, 129.067 211.443, 143.747 214.485 C 155.617 216.944, 168.012 202.127, 165.066 189 C 164.201 185.146, 163.976 185.474, 161.600 194.046 C 158.089 206.713, 147.784 209.242, 139.239 199.534 C 133.465 192.974, 130.792 182.791, 128.993 160.500 C 127.820 145.969, 126.571 137.935, 125.037 135.070 C 124.266 133.628, 124.504 131.991, 125.989 128.525 C 135.507 106.320, 130.198 93.655, 116.586 106.096 C 110.487 111.670, 110.234 111.576, 109.780 103.578 C 109.492 98.507, 108.148 96.912, 106.170 99.295 M 81.538 101.750 C 84.802 109.350, 81.956 137.593, 78.491 131.986 C 74.670 125.804, 62.706 125.800, 59.510 131.980 C 52.240 146.039, 65.832 160.810, 76.103 150.012 C 80.602 145.283, 80.510 145.182, 82.588 157.118 C 87.039 182.692, 78.071 198.440, 66.259 185.791 C 60.963 180.118, 56 161.887, 56 148.101 C 56 139.685, 54.957 137.443, 52.800 141.222 C 46.233 152.728, 55.181 190.394, 66.210 197.671 C 84.548 209.770, 96.333 177.675, 85.452 145.263 C 83.073 138.176, 83.056 137.885, 84.613 131.263 C 87.238 120.096, 85.386 100, 81.732 100 C 81.211 100, 81.124 100.787, 81.538 101.750 M 120.476 112.155 C 112.936 118.775, 110.762 123.263, 111.546 130.585 C 112.230 136.969, 112.279 137.057, 114.204 135.315 C 118.423 131.497, 127.364 109, 124.663 109 C 124.336 109, 122.453 110.420, 120.476 112.155 M 289.174 144.250 C 277.798 180.451, 276.285 204, 285.336 204 C 297.893 204, 303.599 169.729, 296.366 137.750 C 294.313 128.670, 293.974 128.976, 289.174 144.250 M 62.975 135.565 C 60.702 141.545, 63.286 148, 67.954 148 C 72.668 148, 77.924 141.595, 76.063 138.118 C 73.138 132.652, 64.708 131.008, 62.975 135.565" stroke="none" fill="black" fill-rule="evenodd"/></svg>